<?xml version="1.0" encoding="utf-8" standalone="no"?>
<!DOCTYPE svg PUBLIC "-//W3C//DTD SVG 1.1//EN"
  "http://www.w3.org/Graphics/SVG/1.1/DTD/svg11.dtd">
<svg xmlns:xlink="http://www.w3.org/1999/xlink" width="436.2336pt" height="31.5pt" viewBox="0 0 436.2336 31.5" xmlns="http://www.w3.org/2000/svg" version="1.1">
 <metadata>
  <rdf:RDF xmlns:dc="http://purl.org/dc/elements/1.1/" xmlns:cc="http://creativecommons.org/ns#" xmlns:rdf="http://www.w3.org/1999/02/22-rdf-syntax-ns#">
   <cc:Work>
    <dc:type rdf:resource="http://purl.org/dc/dcmitype/StillImage"/>
    <dc:date>2026-09-04T17:04:53.945710</dc:date>
    <dc:format>image/svg+xml</dc:format>
    <dc:creator>
     <cc:Agent>
      <dc:title>Matplotlib v3.11.1, https://matplotlib.org/</dc:title>
     </cc:Agent>
    </dc:creator>
   </cc:Work>
  </rdf:RDF>
 </metadata>
 <defs>
  <style type="text/css">*{stroke-linejoin: round; stroke-linecap: butt}</style>
 </defs>
 <g id="figure_1">
  <g id="patch_1">
   <path d="M 0 31.5 
L 436.2336 31.5 
L 436.2336 -0 
L 0 -0 
L 0 31.5 
z
" style="fill: none"/>
  </g>
  <g id="text_1">
   <!-- $m_j=Q_{0.5,j},\qquad IQR_j=Q_{0.75,j}-Q_{0.25,j},\qquad z_{ij}^{robust}=\frac{x_{ij}-m_j}{IQR_j}$ -->
   <g transform="translate(4.2768 18.99) scale(0.16 -0.16)">
    <defs>
     <path id="DejaVuSans-Oblique-50" d="M 5747 2113 
L 5338 0 
L 4763 0 
L 5166 2094 
Q 5191 2228 5203 2325 
Q 5216 2422 5216 2491 
Q 5216 2772 5059 2928 
Q 4903 3084 4622 3084 
Q 4203 3084 3875 2770 
Q 3547 2456 3450 1953 
L 3066 0 
L 2491 0 
L 2900 2094 
Q 2925 2209 2937 2307 
Q 2950 2406 2950 2484 
Q 2950 2769 2794 2926 
Q 2638 3084 2363 3084 
Q 1938 3084 1609 2770 
Q 1281 2456 1184 1953 
L 800 0 
L 225 0 
L 909 3500 
L 1484 3500 
L 1375 2956 
Q 1609 3263 1923 3423 
Q 2238 3584 2597 3584 
Q 2978 3584 3223 3384 
Q 3469 3184 3519 2828 
Q 3781 3197 4126 3390 
Q 4472 3584 4856 3584 
Q 5306 3584 5551 3325 
Q 5797 3066 5797 2591 
Q 5797 2488 5784 2364 
Q 5772 2241 5747 2113 
z
" transform="scale(0.015625)"/>
     <path id="DejaVuSans-Oblique-4d" d="M 928 3500 
L 1503 3500 
L 813 -63 
L 809 -78 
Q 694 -675 544 -897 
Q 403 -1106 132 -1218 
Q -138 -1331 -506 -1331 
L -722 -1331 
L -628 -844 
L -481 -844 
Q -144 -844 -1 -703 
Q 141 -563 238 -63 
L 928 3500 
z
M 1197 4863 
L 1772 4863 
L 1631 4134 
L 1056 4134 
L 1197 4863 
z
" transform="scale(0.015625)"/>
     <path id="DejaVuSans-20" d="M 678 2906 
L 4684 2906 
L 4684 2381 
L 678 2381 
L 678 2906 
z
M 678 1631 
L 4684 1631 
L 4684 1100 
L 678 1100 
L 678 1631 
z
" transform="scale(0.015625)"/>
     <path id="DejaVuSans-Oblique-34" d="M 2309 -84 
Q 2275 -88 2237 -89 
Q 2200 -91 2125 -91 
Q 1250 -91 756 411 
Q 263 913 263 1797 
Q 263 2319 452 2844 
Q 641 3369 978 3788 
Q 1369 4269 1858 4509 
Q 2347 4750 2938 4750 
Q 3794 4750 4287 4245 
Q 4781 3741 4781 2869 
Q 4781 1928 4265 1147 
Q 3750 366 2919 44 
L 3553 -825 
L 2847 -825 
L 2309 -84 
z
M 2919 4238 
Q 2400 4238 2003 3986 
Q 1606 3734 1313 3219 
Q 1125 2891 1026 2522 
Q 928 2153 928 1778 
Q 928 1128 1239 775 
Q 1550 422 2119 422 
Q 2631 422 3032 676 
Q 3434 931 3719 1434 
Q 3909 1772 4009 2142 
Q 4109 2513 4109 2881 
Q 4109 3528 3796 3883 
Q 3484 4238 2919 4238 
z
" transform="scale(0.015625)"/>
     <path id="DejaVuSans-13" d="M 2034 4250 
Q 1547 4250 1301 3770 
Q 1056 3291 1056 2328 
Q 1056 1369 1301 889 
Q 1547 409 2034 409 
Q 2525 409 2770 889 
Q 3016 1369 3016 2328 
Q 3016 3291 2770 3770 
Q 2525 4250 2034 4250 
z
M 2034 4750 
Q 2819 4750 3233 4129 
Q 3647 3509 3647 2328 
Q 3647 1150 3233 529 
Q 2819 -91 2034 -91 
Q 1250 -91 836 529 
Q 422 1150 422 2328 
Q 422 3509 836 4129 
Q 1250 4750 2034 4750 
z
" transform="scale(0.015625)"/>
     <path id="DejaVuSans-11" d="M 684 794 
L 1344 794 
L 1344 0 
L 684 0 
L 684 794 
z
" transform="scale(0.015625)"/>
     <path id="DejaVuSans-18" d="M 691 4666 
L 3169 4666 
L 3169 4134 
L 1269 4134 
L 1269 2991 
Q 1406 3038 1543 3061 
Q 1681 3084 1819 3084 
Q 2600 3084 3056 2656 
Q 3513 2228 3513 1497 
Q 3513 744 3044 326 
Q 2575 -91 1722 -91 
Q 1428 -91 1123 -41 
Q 819 9 494 109 
L 494 744 
Q 775 591 1075 516 
Q 1375 441 1709 441 
Q 2250 441 2565 725 
Q 2881 1009 2881 1497 
Q 2881 1984 2565 2268 
Q 2250 2553 1709 2553 
Q 1456 2553 1204 2497 
Q 953 2441 691 2322 
L 691 4666 
z
" transform="scale(0.015625)"/>
     <path id="DejaVuSans-f" d="M 750 794 
L 1409 794 
L 1409 256 
L 897 -744 
L 494 -744 
L 750 256 
L 750 794 
z
" transform="scale(0.015625)"/>
     <path id="DejaVuSans-Oblique-2c" d="M 1081 4666 
L 1716 4666 
L 806 0 
L 172 0 
L 1081 4666 
z
" transform="scale(0.015625)"/>
     <path id="DejaVuSans-Oblique-35" d="M 1613 4147 
L 1294 2491 
L 2106 2491 
Q 2584 2491 2879 2755 
Q 3175 3019 3175 3444 
Q 3175 3784 2976 3965 
Q 2778 4147 2406 4147 
L 1613 4147 
z
M 2772 2241 
Q 2972 2194 3105 2009 
Q 3238 1825 3413 1275 
L 3809 0 
L 3144 0 
L 2778 1197 
Q 2638 1659 2453 1815 
Q 2269 1972 1888 1972 
L 1191 1972 
L 806 0 
L 172 0 
L 1081 4666 
L 2503 4666 
Q 3150 4666 3495 4373 
Q 3841 4081 3841 3531 
Q 3841 3044 3547 2687 
Q 3253 2331 2772 2241 
z
" transform="scale(0.015625)"/>
     <path id="DejaVuSans-1a" d="M 525 4666 
L 3525 4666 
L 3525 4397 
L 1831 0 
L 1172 0 
L 2766 4134 
L 525 4134 
L 525 4666 
z
" transform="scale(0.015625)"/>
     <path id="DejaVuSans-c9c" d="M 678 2272 
L 4684 2272 
L 4684 1741 
L 678 1741 
L 678 2272 
z
" transform="scale(0.015625)"/>
     <path id="DejaVuSans-15" d="M 1228 531 
L 3431 531 
L 3431 0 
L 469 0 
L 469 531 
Q 828 903 1448 1529 
Q 2069 2156 2228 2338 
Q 2531 2678 2651 2914 
Q 2772 3150 2772 3378 
Q 2772 3750 2511 3984 
Q 2250 4219 1831 4219 
Q 1534 4219 1204 4116 
Q 875 4013 500 3803 
L 500 4441 
Q 881 4594 1212 4672 
Q 1544 4750 1819 4750 
Q 2544 4750 2975 4387 
Q 3406 4025 3406 3419 
Q 3406 3131 3298 2873 
Q 3191 2616 2906 2266 
Q 2828 2175 2409 1742 
Q 1991 1309 1228 531 
z
" transform="scale(0.015625)"/>
     <path id="DejaVuSans-Oblique-5d" d="M 744 3500 
L 3475 3500 
L 3372 2975 
L 738 459 
L 2913 459 
L 2822 0 
L -19 0 
L 84 525 
L 2719 3041 
L 653 3041 
L 744 3500 
z
" transform="scale(0.015625)"/>
     <path id="DejaVuSans-Oblique-55" d="M 2853 2969 
Q 2766 3016 2653 3041 
Q 2541 3066 2413 3066 
Q 1953 3066 1609 2717 
Q 1266 2369 1153 1784 
L 800 0 
L 225 0 
L 909 3500 
L 1484 3500 
L 1375 2956 
Q 1603 3259 1920 3421 
Q 2238 3584 2597 3584 
Q 2691 3584 2781 3573 
Q 2872 3563 2963 3538 
L 2853 2969 
z
" transform="scale(0.015625)"/>
     <path id="DejaVuSans-Oblique-52" d="M 1625 -91 
Q 1009 -91 651 289 
Q 294 669 294 1325 
Q 294 1706 417 2101 
Q 541 2497 738 2766 
Q 1047 3184 1428 3384 
Q 1809 3584 2291 3584 
Q 2888 3584 3255 3212 
Q 3622 2841 3622 2241 
Q 3622 1825 3500 1412 
Q 3378 1000 3181 728 
Q 2875 309 2494 109 
Q 2113 -91 1625 -91 
z
M 891 1344 
Q 891 869 1089 633 
Q 1288 397 1691 397 
Q 2269 397 2648 901 
Q 3028 1406 3028 2181 
Q 3028 2634 2825 2865 
Q 2622 3097 2228 3097 
Q 1903 3097 1650 2945 
Q 1397 2794 1197 2484 
Q 1050 2253 970 1956 
Q 891 1659 891 1344 
z
" transform="scale(0.015625)"/>
     <path id="DejaVuSans-Oblique-45" d="M 3169 2138 
Q 3169 2591 2961 2847 
Q 2753 3103 2388 3103 
Q 2122 3103 1889 2973 
Q 1656 2844 1484 2597 
Q 1303 2338 1198 1995 
Q 1094 1653 1094 1313 
Q 1094 881 1298 636 
Q 1503 391 1863 391 
Q 2134 391 2365 517 
Q 2597 644 2772 891 
Q 2950 1147 3059 1487 
Q 3169 1828 3169 2138 
z
M 1381 2969 
Q 1594 3256 1914 3420 
Q 2234 3584 2584 3584 
Q 3122 3584 3439 3221 
Q 3756 2859 3756 2241 
Q 3756 1734 3570 1259 
Q 3384 784 3041 416 
Q 2816 172 2522 40 
Q 2228 -91 1906 -91 
Q 1566 -91 1316 65 
Q 1066 222 909 531 
L 806 0 
L 231 0 
L 1178 4863 
L 1753 4863 
L 1381 2969 
z
" transform="scale(0.015625)"/>
     <path id="DejaVuSans-Oblique-58" d="M 428 1388 
L 838 3500 
L 1416 3500 
L 1006 1409 
Q 975 1256 961 1147 
Q 947 1038 947 966 
Q 947 700 1109 554 
Q 1272 409 1569 409 
Q 2031 409 2368 721 
Q 2706 1034 2809 1563 
L 3194 3500 
L 3769 3500 
L 3091 0 
L 2516 0 
L 2631 550 
Q 2388 244 2052 76 
Q 1716 -91 1338 -91 
Q 878 -91 622 161 
Q 366 413 366 863 
Q 366 956 381 1097 
Q 397 1238 428 1388 
z
" transform="scale(0.015625)"/>
     <path id="DejaVuSans-Oblique-56" d="M 3200 3397 
L 3091 2853 
Q 2863 2978 2609 3040 
Q 2356 3103 2088 3103 
Q 1634 3103 1373 2948 
Q 1113 2794 1113 2528 
Q 1113 2219 1719 2053 
Q 1766 2041 1788 2034 
L 1972 1978 
Q 2547 1819 2739 1644 
Q 2931 1469 2931 1166 
Q 2931 609 2489 259 
Q 2047 -91 1331 -91 
Q 1053 -91 747 -37 
Q 441 16 72 128 
L 184 722 
Q 500 559 806 475 
Q 1113 391 1394 391 
Q 1816 391 2080 572 
Q 2344 753 2344 1031 
Q 2344 1331 1650 1516 
L 1591 1531 
L 1394 1581 
Q 956 1697 753 1886 
Q 550 2075 550 2369 
Q 550 2928 970 3256 
Q 1391 3584 2113 3584 
Q 2397 3584 2667 3537 
Q 2938 3491 3200 3397 
z
" transform="scale(0.015625)"/>
     <path id="DejaVuSans-Oblique-57" d="M 2706 3500 
L 2619 3053 
L 1472 3053 
L 1100 1153 
Q 1081 1047 1072 975 
Q 1063 903 1063 863 
Q 1063 663 1183 572 
Q 1303 481 1569 481 
L 2150 481 
L 2053 0 
L 1503 0 
Q 991 0 739 200 
Q 488 400 488 806 
Q 488 878 497 964 
Q 506 1050 525 1153 
L 897 3053 
L 409 3053 
L 500 3500 
L 978 3500 
L 1172 4494 
L 1747 4494 
L 1556 3500 
L 2706 3500 
z
" transform="scale(0.015625)"/>
     <path id="DejaVuSans-Oblique-4c" d="M 1172 4863 
L 1747 4863 
L 1606 4134 
L 1031 4134 
L 1172 4863 
z
M 909 3500 
L 1484 3500 
L 800 0 
L 225 0 
L 909 3500 
z
" transform="scale(0.015625)"/>
     <path id="DejaVuSans-Oblique-5b" d="M 3841 3500 
L 2234 1784 
L 3219 0 
L 2559 0 
L 1819 1388 
L 531 0 
L -166 0 
L 1556 1844 
L 641 3500 
L 1300 3500 
L 1972 2234 
L 3144 3500 
L 3841 3500 
z
" transform="scale(0.015625)"/>
    </defs>
    <use xlink:href="#DejaVuSans-Oblique-50" transform="translate(0 0.065625)"/>
    <use xlink:href="#DejaVuSans-Oblique-4d" transform="translate(97.412109 -14.934326) scale(0.7)"/>
    <use xlink:href="#DejaVuSans-20" transform="translate(139.077148 0.065625)"/>
    <use xlink:href="#DejaVuSans-Oblique-34" transform="translate(242.348633 0.065625)"/>
    <use xlink:href="#DejaVuSans-13" transform="translate(321.05957 -14.934326) scale(0.7)"/>
    <use xlink:href="#DejaVuSans-11" transform="translate(365.595703 -14.934326) scale(0.7)"/>
    <use xlink:href="#DejaVuSans-18" transform="translate(387.84668 -14.934326) scale(0.7)"/>
    <use xlink:href="#DejaVuSans-f" transform="translate(432.382812 -14.934326) scale(0.7)"/>
    <use xlink:href="#DejaVuSans-Oblique-4d" transform="translate(468.271484 -14.934326) scale(0.7)"/>
    <use xlink:href="#DejaVuSans-f" transform="translate(490.454102 0.065625)"/>
    <use xlink:href="#DejaVuSans-Oblique-2c" transform="translate(736.547852 0.065625)"/>
    <use xlink:href="#DejaVuSans-Oblique-34" transform="translate(766.040039 0.065625)"/>
    <use xlink:href="#DejaVuSans-Oblique-35" transform="translate(844.750977 0.065625)"/>
    <use xlink:href="#DejaVuSans-Oblique-4d" transform="translate(914.233398 -14.934326) scale(0.7)"/>
    <use xlink:href="#DejaVuSans-20" transform="translate(955.898438 0.065625)"/>
    <use xlink:href="#DejaVuSans-Oblique-34" transform="translate(1059.169922 0.065625)"/>
    <use xlink:href="#DejaVuSans-13" transform="translate(1137.880859 -14.934326) scale(0.7)"/>
    <use xlink:href="#DejaVuSans-11" transform="translate(1182.416992 -14.934326) scale(0.7)"/>
    <use xlink:href="#DejaVuSans-1a" transform="translate(1204.667969 -14.934326) scale(0.7)"/>
    <use xlink:href="#DejaVuSans-18" transform="translate(1249.204102 -14.934326) scale(0.7)"/>
    <use xlink:href="#DejaVuSans-f" transform="translate(1293.740234 -14.934326) scale(0.7)"/>
    <use xlink:href="#DejaVuSans-Oblique-4d" transform="translate(1329.628906 -14.934326) scale(0.7)"/>
    <use xlink:href="#DejaVuSans-c9c" transform="translate(1371.293945 0.065625)"/>
    <use xlink:href="#DejaVuSans-Oblique-34" transform="translate(1474.56543 0.065625)"/>
    <use xlink:href="#DejaVuSans-13" transform="translate(1553.276367 -14.934326) scale(0.7)"/>
    <use xlink:href="#DejaVuSans-11" transform="translate(1597.8125 -14.934326) scale(0.7)"/>
    <use xlink:href="#DejaVuSans-15" transform="translate(1620.063477 -14.934326) scale(0.7)"/>
    <use xlink:href="#DejaVuSans-18" transform="translate(1664.599609 -14.934326) scale(0.7)"/>
    <use xlink:href="#DejaVuSans-f" transform="translate(1709.135742 -14.934326) scale(0.7)"/>
    <use xlink:href="#DejaVuSans-Oblique-4d" transform="translate(1745.024414 -14.934326) scale(0.7)"/>
    <use xlink:href="#DejaVuSans-f" transform="translate(1767.207031 0.065625)"/>
    <use xlink:href="#DejaVuSans-Oblique-5d" transform="translate(2013.300781 0.065625)"/>
    <use xlink:href="#DejaVuSans-Oblique-55" transform="translate(2070.257161 44.810938) scale(0.7)"/>
    <use xlink:href="#DejaVuSans-Oblique-52" transform="translate(2099.036458 44.810938) scale(0.7)"/>
    <use xlink:href="#DejaVuSans-Oblique-45" transform="translate(2141.863607 44.810938) scale(0.7)"/>
    <use xlink:href="#DejaVuSans-Oblique-58" transform="translate(2186.297201 44.810938) scale(0.7)"/>
    <use xlink:href="#DejaVuSans-Oblique-56" transform="translate(2230.662435 44.810938) scale(0.7)"/>
    <use xlink:href="#DejaVuSans-Oblique-57" transform="translate(2267.132161 44.810938) scale(0.7)"/>
    <use xlink:href="#DejaVuSans-Oblique-4c" transform="translate(2065.791016 -34.373437) scale(0.7)"/>
    <use xlink:href="#DejaVuSans-Oblique-4d" transform="translate(2085.239258 -34.373437) scale(0.7)"/>
    <use xlink:href="#DejaVuSans-20" transform="translate(2316.795247 0.065625)"/>
    <use xlink:href="#DejaVuSans-Oblique-5b" transform="translate(2426.316732 55.13106) scale(0.7)"/>
    <use xlink:href="#DejaVuSans-Oblique-4c" transform="translate(2467.742513 44.631094) scale(0.49)"/>
    <use xlink:href="#DejaVuSans-Oblique-4d" transform="translate(2481.356283 44.631094) scale(0.49)"/>
    <use xlink:href="#DejaVuSans-c9c" transform="translate(2510.52181 55.13106) scale(0.7)"/>
    <use xlink:href="#DejaVuSans-Oblique-50" transform="translate(2582.811849 55.13106) scale(0.7)"/>
    <use xlink:href="#DejaVuSans-Oblique-4d" transform="translate(2651.000326 44.631094) scale(0.49)"/>
    <use xlink:href="#DejaVuSans-Oblique-2c" transform="translate(2476.316732 -36.2625) scale(0.7)"/>
    <use xlink:href="#DejaVuSans-Oblique-34" transform="translate(2496.961263 -36.2625) scale(0.7)"/>
    <use xlink:href="#DejaVuSans-Oblique-35" transform="translate(2552.058919 -36.2625) scale(0.7)"/>
    <use xlink:href="#DejaVuSans-Oblique-4d" transform="translate(2600.696615 -46.762466) scale(0.49)"/>
    <path d="M 2426.316732 21.940625 
L 2426.316732 28.190625 
L 2666.528158 28.190625 
L 2666.528158 21.940625 
L 2426.316732 21.940625 
z
"/>
   </g>
  </g>
 </g>
</svg>
