<?xml version="1.0" encoding="utf-8" standalone="no"?>
<!DOCTYPE svg PUBLIC "-//W3C//DTD SVG 1.1//EN"
  "http://www.w3.org/Graphics/SVG/1.1/DTD/svg11.dtd">
<svg xmlns:xlink="http://www.w3.org/1999/xlink" width="342.9648pt" height="24.3pt" viewBox="0 0 342.9648 24.3" xmlns="http://www.w3.org/2000/svg" version="1.1">
 <metadata>
  <rdf:RDF xmlns:dc="http://purl.org/dc/elements/1.1/" xmlns:cc="http://creativecommons.org/ns#" xmlns:rdf="http://www.w3.org/1999/02/22-rdf-syntax-ns#">
   <cc:Work>
    <dc:type rdf:resource="http://purl.org/dc/dcmitype/StillImage"/>
    <dc:date>2026-09-04T17:04:54.199798</dc:date>
    <dc:format>image/svg+xml</dc:format>
    <dc:creator>
     <cc:Agent>
      <dc:title>Matplotlib v3.11.1, https://matplotlib.org/</dc:title>
     </cc:Agent>
    </dc:creator>
   </cc:Work>
  </rdf:RDF>
 </metadata>
 <defs>
  <style type="text/css">*{stroke-linejoin: round; stroke-linecap: butt}</style>
 </defs>
 <g id="figure_1">
  <g id="patch_1">
   <path d="M 0 24.3 
L 342.9648 24.3 
L 342.9648 0 
L 0 0 
L 0 24.3 
z
" style="fill: none"/>
  </g>
  <g id="text_1">
   <!-- $Precision=\frac{TP}{TP+FP},\qquad Recall=TPR=\frac{TP}{TP+FN}$ -->
   <g transform="translate(3.3624 16.11) scale(0.16 -0.16)">
    <defs>
     <path id="DejaVuSans-Oblique-33" d="M 1081 4666 
L 2541 4666 
Q 3178 4666 3512 4369 
Q 3847 4072 3847 3500 
Q 3847 2731 3353 2303 
Q 2859 1875 1966 1875 
L 1172 1875 
L 806 0 
L 172 0 
L 1081 4666 
z
M 1613 4147 
L 1275 2394 
L 2069 2394 
Q 2606 2394 2893 2669 
Q 3181 2944 3181 3456 
Q 3181 3784 2986 3965 
Q 2791 4147 2438 4147 
L 1613 4147 
z
" transform="scale(0.015625)"/>
     <path id="DejaVuSans-Oblique-55" d="M 2853 2969 
Q 2766 3016 2653 3041 
Q 2541 3066 2413 3066 
Q 1953 3066 1609 2717 
Q 1266 2369 1153 1784 
L 800 0 
L 225 0 
L 909 3500 
L 1484 3500 
L 1375 2956 
Q 1603 3259 1920 3421 
Q 2238 3584 2597 3584 
Q 2691 3584 2781 3573 
Q 2872 3563 2963 3538 
L 2853 2969 
z
" transform="scale(0.015625)"/>
     <path id="DejaVuSans-Oblique-48" d="M 3078 2063 
Q 3088 2113 3092 2166 
Q 3097 2219 3097 2272 
Q 3097 2653 2873 2875 
Q 2650 3097 2266 3097 
Q 1838 3097 1509 2826 
Q 1181 2556 1013 2059 
L 3078 2063 
z
M 3578 1613 
L 903 1613 
Q 884 1494 878 1425 
Q 872 1356 872 1306 
Q 872 872 1139 634 
Q 1406 397 1894 397 
Q 2269 397 2603 481 
Q 2938 566 3225 728 
L 3116 159 
Q 2806 34 2476 -28 
Q 2147 -91 1806 -91 
Q 1078 -91 686 257 
Q 294 606 294 1247 
Q 294 1794 489 2264 
Q 684 2734 1063 3103 
Q 1306 3334 1642 3459 
Q 1978 3584 2356 3584 
Q 2950 3584 3301 3228 
Q 3653 2872 3653 2272 
Q 3653 2128 3634 1964 
Q 3616 1800 3578 1613 
z
" transform="scale(0.015625)"/>
     <path id="DejaVuSans-Oblique-46" d="M 3431 3366 
L 3316 2797 
Q 3109 2947 2876 3022 
Q 2644 3097 2394 3097 
Q 2119 3097 1870 3000 
Q 1622 2903 1453 2725 
Q 1184 2453 1037 2087 
Q 891 1722 891 1331 
Q 891 859 1127 628 
Q 1363 397 1844 397 
Q 2081 397 2348 469 
Q 2616 541 2906 684 
L 2797 116 
Q 2547 13 2283 -39 
Q 2019 -91 1741 -91 
Q 1044 -91 669 257 
Q 294 606 294 1253 
Q 294 1797 489 2255 
Q 684 2713 1069 3078 
Q 1331 3328 1684 3456 
Q 2038 3584 2456 3584 
Q 2700 3584 2940 3529 
Q 3181 3475 3431 3366 
z
" transform="scale(0.015625)"/>
     <path id="DejaVuSans-Oblique-4c" d="M 1172 4863 
L 1747 4863 
L 1606 4134 
L 1031 4134 
L 1172 4863 
z
M 909 3500 
L 1484 3500 
L 800 0 
L 225 0 
L 909 3500 
z
" transform="scale(0.015625)"/>
     <path id="DejaVuSans-Oblique-56" d="M 3200 3397 
L 3091 2853 
Q 2863 2978 2609 3040 
Q 2356 3103 2088 3103 
Q 1634 3103 1373 2948 
Q 1113 2794 1113 2528 
Q 1113 2219 1719 2053 
Q 1766 2041 1788 2034 
L 1972 1978 
Q 2547 1819 2739 1644 
Q 2931 1469 2931 1166 
Q 2931 609 2489 259 
Q 2047 -91 1331 -91 
Q 1053 -91 747 -37 
Q 441 16 72 128 
L 184 722 
Q 500 559 806 475 
Q 1113 391 1394 391 
Q 1816 391 2080 572 
Q 2344 753 2344 1031 
Q 2344 1331 1650 1516 
L 1591 1531 
L 1394 1581 
Q 956 1697 753 1886 
Q 550 2075 550 2369 
Q 550 2928 970 3256 
Q 1391 3584 2113 3584 
Q 2397 3584 2667 3537 
Q 2938 3491 3200 3397 
z
" transform="scale(0.015625)"/>
     <path id="DejaVuSans-Oblique-52" d="M 1625 -91 
Q 1009 -91 651 289 
Q 294 669 294 1325 
Q 294 1706 417 2101 
Q 541 2497 738 2766 
Q 1047 3184 1428 3384 
Q 1809 3584 2291 3584 
Q 2888 3584 3255 3212 
Q 3622 2841 3622 2241 
Q 3622 1825 3500 1412 
Q 3378 1000 3181 728 
Q 2875 309 2494 109 
Q 2113 -91 1625 -91 
z
M 891 1344 
Q 891 869 1089 633 
Q 1288 397 1691 397 
Q 2269 397 2648 901 
Q 3028 1406 3028 2181 
Q 3028 2634 2825 2865 
Q 2622 3097 2228 3097 
Q 1903 3097 1650 2945 
Q 1397 2794 1197 2484 
Q 1050 2253 970 1956 
Q 891 1659 891 1344 
z
" transform="scale(0.015625)"/>
     <path id="DejaVuSans-Oblique-51" d="M 3566 2113 
L 3156 0 
L 2578 0 
L 2988 2091 
Q 3016 2238 3031 2350 
Q 3047 2463 3047 2528 
Q 3047 2791 2881 2937 
Q 2716 3084 2419 3084 
Q 1956 3084 1622 2776 
Q 1288 2469 1184 1941 
L 800 0 
L 225 0 
L 903 3500 
L 1478 3500 
L 1363 2950 
Q 1603 3253 1940 3418 
Q 2278 3584 2650 3584 
Q 3113 3584 3367 3334 
Q 3622 3084 3622 2631 
Q 3622 2519 3608 2391 
Q 3594 2263 3566 2113 
z
" transform="scale(0.015625)"/>
     <path id="DejaVuSans-20" d="M 678 2906 
L 4684 2906 
L 4684 2381 
L 678 2381 
L 678 2906 
z
M 678 1631 
L 4684 1631 
L 4684 1100 
L 678 1100 
L 678 1631 
z
" transform="scale(0.015625)"/>
     <path id="DejaVuSans-Oblique-37" d="M 378 4666 
L 4325 4666 
L 4225 4134 
L 2559 4134 
L 1759 0 
L 1125 0 
L 1925 4134 
L 275 4134 
L 378 4666 
z
" transform="scale(0.015625)"/>
     <path id="DejaVuSans-e" d="M 2944 4013 
L 2944 2272 
L 4684 2272 
L 4684 1741 
L 2944 1741 
L 2944 0 
L 2419 0 
L 2419 1741 
L 678 1741 
L 678 2272 
L 2419 2272 
L 2419 4013 
L 2944 4013 
z
" transform="scale(0.015625)"/>
     <path id="DejaVuSans-Oblique-29" d="M 1081 4666 
L 3756 4666 
L 3653 4134 
L 1606 4134 
L 1338 2759 
L 3188 2759 
L 3084 2228 
L 1234 2228 
L 800 0 
L 172 0 
L 1081 4666 
z
" transform="scale(0.015625)"/>
     <path id="DejaVuSans-f" d="M 750 794 
L 1409 794 
L 1409 256 
L 897 -744 
L 494 -744 
L 750 256 
L 750 794 
z
" transform="scale(0.015625)"/>
     <path id="DejaVuSans-Oblique-35" d="M 1613 4147 
L 1294 2491 
L 2106 2491 
Q 2584 2491 2879 2755 
Q 3175 3019 3175 3444 
Q 3175 3784 2976 3965 
Q 2778 4147 2406 4147 
L 1613 4147 
z
M 2772 2241 
Q 2972 2194 3105 2009 
Q 3238 1825 3413 1275 
L 3809 0 
L 3144 0 
L 2778 1197 
Q 2638 1659 2453 1815 
Q 2269 1972 1888 1972 
L 1191 1972 
L 806 0 
L 172 0 
L 1081 4666 
L 2503 4666 
Q 3150 4666 3495 4373 
Q 3841 4081 3841 3531 
Q 3841 3044 3547 2687 
Q 3253 2331 2772 2241 
z
" transform="scale(0.015625)"/>
     <path id="DejaVuSans-Oblique-44" d="M 3438 1997 
L 3047 0 
L 2472 0 
L 2578 531 
Q 2325 219 2001 64 
Q 1678 -91 1281 -91 
Q 834 -91 548 182 
Q 263 456 263 884 
Q 263 1497 752 1853 
Q 1241 2209 2100 2209 
L 2900 2209 
L 2931 2363 
Q 2938 2388 2941 2417 
Q 2944 2447 2944 2509 
Q 2944 2788 2717 2942 
Q 2491 3097 2081 3097 
Q 1800 3097 1504 3025 
Q 1209 2953 897 2809 
L 997 3341 
Q 1322 3463 1633 3523 
Q 1944 3584 2234 3584 
Q 2853 3584 3176 3315 
Q 3500 3047 3500 2534 
Q 3500 2431 3484 2292 
Q 3469 2153 3438 1997 
z
M 2816 1759 
L 2241 1759 
Q 1534 1759 1195 1570 
Q 856 1381 856 984 
Q 856 709 1029 553 
Q 1203 397 1509 397 
Q 1978 397 2328 733 
Q 2678 1069 2791 1631 
L 2816 1759 
z
" transform="scale(0.015625)"/>
     <path id="DejaVuSans-Oblique-4f" d="M 1172 4863 
L 1747 4863 
L 800 0 
L 225 0 
L 1172 4863 
z
" transform="scale(0.015625)"/>
     <path id="DejaVuSans-Oblique-31" d="M 1081 4666 
L 1931 4666 
L 3219 666 
L 4000 4666 
L 4616 4666 
L 3706 0 
L 2853 0 
L 1569 4025 
L 788 0 
L 172 0 
L 1081 4666 
z
" transform="scale(0.015625)"/>
    </defs>
    <use xlink:href="#DejaVuSans-Oblique-33" transform="translate(0 0.590625)"/>
    <use xlink:href="#DejaVuSans-Oblique-55" transform="translate(60.302734 0.590625)"/>
    <use xlink:href="#DejaVuSans-Oblique-48" transform="translate(101.416016 0.590625)"/>
    <use xlink:href="#DejaVuSans-Oblique-46" transform="translate(162.939453 0.590625)"/>
    <use xlink:href="#DejaVuSans-Oblique-4c" transform="translate(217.919922 0.590625)"/>
    <use xlink:href="#DejaVuSans-Oblique-56" transform="translate(245.703125 0.590625)"/>
    <use xlink:href="#DejaVuSans-Oblique-4c" transform="translate(297.802734 0.590625)"/>
    <use xlink:href="#DejaVuSans-Oblique-52" transform="translate(325.585938 0.590625)"/>
    <use xlink:href="#DejaVuSans-Oblique-51" transform="translate(386.767578 0.590625)"/>
    <use xlink:href="#DejaVuSans-20" transform="translate(469.628906 0.590625)"/>
    <use xlink:href="#DejaVuSans-Oblique-37" transform="translate(663.150391 34.965625) scale(0.7)"/>
    <use xlink:href="#DejaVuSans-Oblique-33" transform="translate(705.90918 34.965625) scale(0.7)"/>
    <use xlink:href="#DejaVuSans-Oblique-37" transform="translate(579.150391 -34.81875) scale(0.7)"/>
    <use xlink:href="#DejaVuSans-Oblique-33" transform="translate(621.90918 -34.81875) scale(0.7)"/>
    <use xlink:href="#DejaVuSans-e" transform="translate(677.758789 -34.81875) scale(0.7)"/>
    <use xlink:href="#DejaVuSans-Oblique-29" transform="translate(750.048828 -34.81875) scale(0.7)"/>
    <use xlink:href="#DejaVuSans-Oblique-33" transform="translate(790.3125 -34.81875) scale(0.7)"/>
    <use xlink:href="#DejaVuSans-f" transform="translate(838.774414 0.590625)"/>
    <use xlink:href="#DejaVuSans-Oblique-35" transform="translate(1084.868164 0.590625)"/>
    <use xlink:href="#DejaVuSans-Oblique-48" transform="translate(1154.350586 0.590625)"/>
    <use xlink:href="#DejaVuSans-Oblique-46" transform="translate(1215.874023 0.590625)"/>
    <use xlink:href="#DejaVuSans-Oblique-44" transform="translate(1270.854492 0.590625)"/>
    <use xlink:href="#DejaVuSans-Oblique-4f" transform="translate(1332.133789 0.590625)"/>
    <use xlink:href="#DejaVuSans-Oblique-4f" transform="translate(1359.916992 0.590625)"/>
    <use xlink:href="#DejaVuSans-20" transform="translate(1407.182617 0.590625)"/>
    <use xlink:href="#DejaVuSans-Oblique-37" transform="translate(1510.454102 0.590625)"/>
    <use xlink:href="#DejaVuSans-Oblique-33" transform="translate(1571.538086 0.590625)"/>
    <use xlink:href="#DejaVuSans-Oblique-35" transform="translate(1631.84082 0.590625)"/>
    <use xlink:href="#DejaVuSans-20" transform="translate(1720.805664 0.590625)"/>
    <use xlink:href="#DejaVuSans-Oblique-37" transform="translate(1919.327148 34.965625) scale(0.7)"/>
    <use xlink:href="#DejaVuSans-Oblique-33" transform="translate(1962.085938 34.965625) scale(0.7)"/>
    <use xlink:href="#DejaVuSans-Oblique-37" transform="translate(1830.327148 -34.81875) scale(0.7)"/>
    <use xlink:href="#DejaVuSans-Oblique-33" transform="translate(1873.085938 -34.81875) scale(0.7)"/>
    <use xlink:href="#DejaVuSans-e" transform="translate(1928.935547 -34.81875) scale(0.7)"/>
    <use xlink:href="#DejaVuSans-Oblique-29" transform="translate(2001.225586 -34.81875) scale(0.7)"/>
    <use xlink:href="#DejaVuSans-Oblique-31" transform="translate(2041.489258 -34.81875) scale(0.7)"/>
    <path d="M 579.150391 22.465625 
L 579.150391 28.715625 
L 832.524414 28.715625 
L 832.524414 22.465625 
L 579.150391 22.465625 
z
"/>
    <path d="M 1830.327148 22.465625 
L 1830.327148 28.715625 
L 2093.852539 28.715625 
L 2093.852539 22.465625 
L 1830.327148 22.465625 
z
"/>
   </g>
  </g>
 </g>
</svg>
