<?xml version="1.0" encoding="utf-8" standalone="no"?>
<!DOCTYPE svg PUBLIC "-//W3C//DTD SVG 1.1//EN"
  "http://www.w3.org/Graphics/SVG/1.1/DTD/svg11.dtd">
<svg xmlns:xlink="http://www.w3.org/1999/xlink" width="240.8832pt" height="32.4pt" viewBox="0 0 240.8832 32.4" xmlns="http://www.w3.org/2000/svg" version="1.1">
 <metadata>
  <rdf:RDF xmlns:dc="http://purl.org/dc/elements/1.1/" xmlns:cc="http://creativecommons.org/ns#" xmlns:rdf="http://www.w3.org/1999/02/22-rdf-syntax-ns#">
   <cc:Work>
    <dc:type rdf:resource="http://purl.org/dc/dcmitype/StillImage"/>
    <dc:date>2026-09-04T18:11:33.047199</dc:date>
    <dc:format>image/svg+xml</dc:format>
    <dc:creator>
     <cc:Agent>
      <dc:title>Matplotlib v3.11.1, https://matplotlib.org/</dc:title>
     </cc:Agent>
    </dc:creator>
   </cc:Work>
  </rdf:RDF>
 </metadata>
 <defs>
  <style type="text/css">*{stroke-linejoin: round; stroke-linecap: butt}</style>
 </defs>
 <g id="figure_1">
  <g id="patch_1">
   <path d="M 0 32.4 
L 240.8832 32.4 
L 240.8832 0 
L 0 0 
L 0 32.4 
z
" style="fill: none"/>
  </g>
  <g id="text_1">
   <!-- $N_{obs}=T\quad\Longrightarrow\quad \hat{\Sigma}=\frac{1}{N_{obs}-1}X^{T}X.$ -->
   <g transform="translate(2.3616 21.24) scale(0.16 -0.16)">
    <defs>
     <path id="DejaVuSans-Oblique-31" d="M 1081 4666 
L 1931 4666 
L 3219 666 
L 4000 4666 
L 4616 4666 
L 3706 0 
L 2853 0 
L 1569 4025 
L 788 0 
L 172 0 
L 1081 4666 
z
" transform="scale(0.015625)"/>
     <path id="DejaVuSans-Oblique-52" d="M 1625 -91 
Q 1009 -91 651 289 
Q 294 669 294 1325 
Q 294 1706 417 2101 
Q 541 2497 738 2766 
Q 1047 3184 1428 3384 
Q 1809 3584 2291 3584 
Q 2888 3584 3255 3212 
Q 3622 2841 3622 2241 
Q 3622 1825 3500 1412 
Q 3378 1000 3181 728 
Q 2875 309 2494 109 
Q 2113 -91 1625 -91 
z
M 891 1344 
Q 891 869 1089 633 
Q 1288 397 1691 397 
Q 2269 397 2648 901 
Q 3028 1406 3028 2181 
Q 3028 2634 2825 2865 
Q 2622 3097 2228 3097 
Q 1903 3097 1650 2945 
Q 1397 2794 1197 2484 
Q 1050 2253 970 1956 
Q 891 1659 891 1344 
z
" transform="scale(0.015625)"/>
     <path id="DejaVuSans-Oblique-45" d="M 3169 2138 
Q 3169 2591 2961 2847 
Q 2753 3103 2388 3103 
Q 2122 3103 1889 2973 
Q 1656 2844 1484 2597 
Q 1303 2338 1198 1995 
Q 1094 1653 1094 1313 
Q 1094 881 1298 636 
Q 1503 391 1863 391 
Q 2134 391 2365 517 
Q 2597 644 2772 891 
Q 2950 1147 3059 1487 
Q 3169 1828 3169 2138 
z
M 1381 2969 
Q 1594 3256 1914 3420 
Q 2234 3584 2584 3584 
Q 3122 3584 3439 3221 
Q 3756 2859 3756 2241 
Q 3756 1734 3570 1259 
Q 3384 784 3041 416 
Q 2816 172 2522 40 
Q 2228 -91 1906 -91 
Q 1566 -91 1316 65 
Q 1066 222 909 531 
L 806 0 
L 231 0 
L 1178 4863 
L 1753 4863 
L 1381 2969 
z
" transform="scale(0.015625)"/>
     <path id="DejaVuSans-Oblique-56" d="M 3200 3397 
L 3091 2853 
Q 2863 2978 2609 3040 
Q 2356 3103 2088 3103 
Q 1634 3103 1373 2948 
Q 1113 2794 1113 2528 
Q 1113 2219 1719 2053 
Q 1766 2041 1788 2034 
L 1972 1978 
Q 2547 1819 2739 1644 
Q 2931 1469 2931 1166 
Q 2931 609 2489 259 
Q 2047 -91 1331 -91 
Q 1053 -91 747 -37 
Q 441 16 72 128 
L 184 722 
Q 500 559 806 475 
Q 1113 391 1394 391 
Q 1816 391 2080 572 
Q 2344 753 2344 1031 
Q 2344 1331 1650 1516 
L 1591 1531 
L 1394 1581 
Q 956 1697 753 1886 
Q 550 2075 550 2369 
Q 550 2928 970 3256 
Q 1391 3584 2113 3584 
Q 2397 3584 2667 3537 
Q 2938 3491 3200 3397 
z
" transform="scale(0.015625)"/>
     <path id="DejaVuSans-20" d="M 678 2906 
L 4684 2906 
L 4684 2381 
L 678 2381 
L 678 2906 
z
M 678 1631 
L 4684 1631 
L 4684 1100 
L 678 1100 
L 678 1631 
z
" transform="scale(0.015625)"/>
     <path id="DejaVuSans-Oblique-37" d="M 378 4666 
L 4325 4666 
L 4225 4134 
L 2559 4134 
L 1759 0 
L 1125 0 
L 1925 4134 
L 275 4134 
L 378 4666 
z
" transform="scale(0.015625)"/>
     <path id="DejaVuSans-1054" d="M 7925 1678 
L 8253 2006 
L 7925 2334 
L 366 2334 
L 366 2709 
L 7550 2709 
L 7259 3000 
L 7634 3375 
L 8863 2147 
L 8863 1866 
L 7634 638 
L 7259 1013 
L 7550 1303 
L 366 1303 
L 366 1678 
L 7925 1678 
z
" transform="scale(0.015625)"/>
     <path id="DejaVuSans-2b3" d="M -1831 5119 
L -1369 5119 
L -603 3944 
L -1038 3944 
L -1600 4709 
L -2163 3944 
L -2597 3944 
L -1831 5119 
z
M -1600 3584 
L -1600 3584 
z
" transform="scale(0.015625)"/>
     <path id="DejaVuSans-337" d="M 1353 531 
L 3634 531 
L 3634 0 
L 628 0 
L 628 531 
L 2125 2481 
L 628 4134 
L 628 4666 
L 3578 4666 
L 3578 4134 
L 1353 4134 
L 2850 2494 
L 1353 531 
z
" transform="scale(0.015625)"/>
     <path id="DejaVuSans-14" d="M 794 531 
L 1825 531 
L 1825 4091 
L 703 3866 
L 703 4441 
L 1819 4666 
L 2450 4666 
L 2450 531 
L 3481 531 
L 3481 0 
L 794 0 
L 794 531 
z
" transform="scale(0.015625)"/>
     <path id="DejaVuSans-c9c" d="M 678 2272 
L 4684 2272 
L 4684 1741 
L 678 1741 
L 678 2272 
z
" transform="scale(0.015625)"/>
     <path id="DejaVuSans-Oblique-3b" d="M 878 4666 
L 1516 4666 
L 2316 2981 
L 3763 4666 
L 4500 4666 
L 2578 2438 
L 3738 0 
L 3103 0 
L 2163 1966 
L 459 0 
L -275 0 
L 1906 2509 
L 878 4666 
z
" transform="scale(0.015625)"/>
     <path id="DejaVuSans-11" d="M 684 794 
L 1344 794 
L 1344 0 
L 684 0 
L 684 794 
z
" transform="scale(0.015625)"/>
    </defs>
    <use xlink:href="#DejaVuSans-Oblique-31" transform="translate(0 0.609375)"/>
    <use xlink:href="#DejaVuSans-Oblique-52" transform="translate(74.804688 -14.390576) scale(0.7)"/>
    <use xlink:href="#DejaVuSans-Oblique-45" transform="translate(117.631836 -14.390576) scale(0.7)"/>
    <use xlink:href="#DejaVuSans-Oblique-56" transform="translate(162.06543 -14.390576) scale(0.7)"/>
    <use xlink:href="#DejaVuSans-20" transform="translate(220.751953 0.609375)"/>
    <use xlink:href="#DejaVuSans-Oblique-37" transform="translate(324.023438 0.609375)"/>
    <use xlink:href="#DejaVuSans-1054" transform="translate(502.001953 0.609375)"/>
    <use xlink:href="#DejaVuSans-2b3" transform="translate(826.629883 30.015625)"/>
    <use xlink:href="#DejaVuSans-337" transform="translate(762.255859 0.609375)"/>
    <use xlink:href="#DejaVuSans-20" transform="translate(844.921875 0.609375)"/>
    <use xlink:href="#DejaVuSans-14" transform="translate(1067.443359 34.984375) scale(0.7)"/>
    <use xlink:href="#DejaVuSans-Oblique-31" transform="translate(954.443359 -34.8) scale(0.7)"/>
    <use xlink:href="#DejaVuSans-Oblique-52" transform="translate(1006.806641 -45.299966) scale(0.49)"/>
    <use xlink:href="#DejaVuSans-Oblique-45" transform="translate(1036.785645 -45.299966) scale(0.49)"/>
    <use xlink:href="#DejaVuSans-Oblique-56" transform="translate(1067.88916 -45.299966) scale(0.49)"/>
    <use xlink:href="#DejaVuSans-c9c" transform="translate(1108.969727 -34.8) scale(0.7)"/>
    <use xlink:href="#DejaVuSans-14" transform="translate(1181.259766 -34.8) scale(0.7)"/>
    <use xlink:href="#DejaVuSans-Oblique-3b" transform="translate(1232.045898 0.609375)"/>
    <use xlink:href="#DejaVuSans-Oblique-37" transform="translate(1307.568529 41.909375) scale(0.7)"/>
    <use xlink:href="#DejaVuSans-Oblique-3b" transform="translate(1353.061693 0.609375)"/>
    <use xlink:href="#DejaVuSans-11" transform="translate(1421.567552 0.609375)"/>
    <path d="M 954.443359 22.484375 
L 954.443359 28.734375 
L 1225.795898 28.734375 
L 1225.795898 22.484375 
L 954.443359 22.484375 
z
"/>
   </g>
  </g>
 </g>
</svg>
