<?xml version="1.0" encoding="utf-8" standalone="no"?>
<!DOCTYPE svg PUBLIC "-//W3C//DTD SVG 1.1//EN"
  "http://www.w3.org/Graphics/SVG/1.1/DTD/svg11.dtd">
<svg xmlns:xlink="http://www.w3.org/1999/xlink" width="323.136pt" height="51.3pt" viewBox="0 0 323.136 51.3" xmlns="http://www.w3.org/2000/svg" version="1.1">
 <metadata>
  <rdf:RDF xmlns:dc="http://purl.org/dc/elements/1.1/" xmlns:cc="http://creativecommons.org/ns#" xmlns:rdf="http://www.w3.org/1999/02/22-rdf-syntax-ns#">
   <cc:Work>
    <dc:type rdf:resource="http://purl.org/dc/dcmitype/StillImage"/>
    <dc:date>2026-09-04T18:32:39.881902</dc:date>
    <dc:format>image/svg+xml</dc:format>
    <dc:creator>
     <cc:Agent>
      <dc:title>Matplotlib v3.11.1, https://matplotlib.org/</dc:title>
     </cc:Agent>
    </dc:creator>
   </cc:Work>
  </rdf:RDF>
 </metadata>
 <defs>
  <style type="text/css">*{stroke-linejoin: round; stroke-linecap: butt}</style>
 </defs>
 <g id="figure_1">
  <g id="patch_1">
   <path d="M 0 51.3 
L 323.136 51.3 
L 323.136 0 
L 0 0 
L 0 51.3 
z
" style="fill: none"/>
  </g>
  <g id="text_1">
   <!-- $\gamma_{tk}=P(z_t=k\mid\boldsymbol{x}_t,\theta^{old})=\frac{\pi_k^{old}\mathcal{N}(\boldsymbol{x}_t\mid\boldsymbol{\mu}_k^{old},\Sigma_k^{old})}{\sum_l\pi_l^{old}\mathcal{N}(\boldsymbol{x}_t\mid\boldsymbol{\mu}_l^{old},\Sigma_l^{old})}.$ -->
   <g transform="translate(3.168 26.01) scale(0.16 -0.16)">
    <defs>
     <path id="DejaVuSans-Oblique-347" d="M 1491 2950 
L 1838 788 
L 3456 3500 
L 4066 3500 
L 1972 0 
L 1713 -1331 
L 1138 -1331 
L 1397 0 
L 988 2613 
Q 925 3006 628 3006 
L 475 3006 
L 569 3500 
L 788 3500 
Q 1403 3500 1491 2950 
z
" transform="scale(0.015625)"/>
     <path id="DejaVuSans-Oblique-57" d="M 2706 3500 
L 2619 3053 
L 1472 3053 
L 1100 1153 
Q 1081 1047 1072 975 
Q 1063 903 1063 863 
Q 1063 663 1183 572 
Q 1303 481 1569 481 
L 2150 481 
L 2053 0 
L 1503 0 
Q 991 0 739 200 
Q 488 400 488 806 
Q 488 878 497 964 
Q 506 1050 525 1153 
L 897 3053 
L 409 3053 
L 500 3500 
L 978 3500 
L 1172 4494 
L 1747 4494 
L 1556 3500 
L 2706 3500 
z
" transform="scale(0.015625)"/>
     <path id="DejaVuSans-Oblique-4e" d="M 1172 4863 
L 1747 4863 
L 1197 2028 
L 3169 3500 
L 3916 3500 
L 1716 1825 
L 3322 0 
L 2625 0 
L 1131 1709 
L 800 0 
L 225 0 
L 1172 4863 
z
" transform="scale(0.015625)"/>
     <path id="DejaVuSans-20" d="M 678 2906 
L 4684 2906 
L 4684 2381 
L 678 2381 
L 678 2906 
z
M 678 1631 
L 4684 1631 
L 4684 1100 
L 678 1100 
L 678 1631 
z
" transform="scale(0.015625)"/>
     <path id="DejaVuSans-Oblique-33" d="M 1081 4666 
L 2541 4666 
Q 3178 4666 3512 4369 
Q 3847 4072 3847 3500 
Q 3847 2731 3353 2303 
Q 2859 1875 1966 1875 
L 1172 1875 
L 806 0 
L 172 0 
L 1081 4666 
z
M 1613 4147 
L 1275 2394 
L 2069 2394 
Q 2606 2394 2893 2669 
Q 3181 2944 3181 3456 
Q 3181 3784 2986 3965 
Q 2791 4147 2438 4147 
L 1613 4147 
z
" transform="scale(0.015625)"/>
     <path id="DejaVuSans-b" d="M 1984 4856 
Q 1566 4138 1362 3434 
Q 1159 2731 1159 2009 
Q 1159 1288 1364 580 
Q 1569 -128 1984 -844 
L 1484 -844 
Q 1016 -109 783 600 
Q 550 1309 550 2009 
Q 550 2706 781 3412 
Q 1013 4119 1484 4856 
L 1984 4856 
z
" transform="scale(0.015625)"/>
     <path id="DejaVuSans-Oblique-5d" d="M 744 3500 
L 3475 3500 
L 3372 2975 
L 738 459 
L 2913 459 
L 2822 0 
L -19 0 
L 84 525 
L 2719 3041 
L 653 3041 
L 744 3500 
z
" transform="scale(0.015625)"/>
     <path id="DejaVuSans-cad" d="M 1350 4934 
L 1850 4934 
L 1850 -1369 
L 1350 -1369 
L 1350 4934 
z
" transform="scale(0.015625)"/>
     <path id="DejaVuSans-BoldOblique-5b" d="M 1416 1791 
L 488 3500 
L 1650 3500 
L 2169 2463 
L 3078 3500 
L 4294 3500 
L 2700 1797 
L 3675 0 
L 2509 0 
L 1959 1106 
L 953 0 
L -263 0 
L 1416 1791 
z
" transform="scale(0.015625)"/>
     <path id="DejaVuSans-f" d="M 750 794 
L 1409 794 
L 1409 256 
L 897 -744 
L 494 -744 
L 750 256 
L 750 794 
z
" transform="scale(0.015625)"/>
     <path id="DejaVuSans-Oblique-34c" d="M 2913 2219 
L 925 2219 
Q 791 1284 928 888 
Q 1100 400 1566 400 
Q 2034 400 2391 891 
Q 2703 1322 2913 2219 
z
M 3009 2750 
Q 3094 3638 2984 3950 
Q 2813 4444 2353 4444 
Q 1875 4444 1525 3956 
Q 1250 3563 1034 2750 
L 3009 2750 
z
M 2444 4913 
Q 3194 4913 3494 4250 
Q 3794 3591 3566 2422 
Q 3341 1256 2781 594 
Q 2225 -72 1475 -72 
Q 722 -72 425 594 
Q 128 1256 353 2422 
Q 581 3591 1134 4250 
Q 1691 4913 2444 4913 
z
" transform="scale(0.015625)"/>
     <path id="DejaVuSans-Oblique-52" d="M 1625 -91 
Q 1009 -91 651 289 
Q 294 669 294 1325 
Q 294 1706 417 2101 
Q 541 2497 738 2766 
Q 1047 3184 1428 3384 
Q 1809 3584 2291 3584 
Q 2888 3584 3255 3212 
Q 3622 2841 3622 2241 
Q 3622 1825 3500 1412 
Q 3378 1000 3181 728 
Q 2875 309 2494 109 
Q 2113 -91 1625 -91 
z
M 891 1344 
Q 891 869 1089 633 
Q 1288 397 1691 397 
Q 2269 397 2648 901 
Q 3028 1406 3028 2181 
Q 3028 2634 2825 2865 
Q 2622 3097 2228 3097 
Q 1903 3097 1650 2945 
Q 1397 2794 1197 2484 
Q 1050 2253 970 1956 
Q 891 1659 891 1344 
z
" transform="scale(0.015625)"/>
     <path id="DejaVuSans-Oblique-4f" d="M 1172 4863 
L 1747 4863 
L 800 0 
L 225 0 
L 1172 4863 
z
" transform="scale(0.015625)"/>
     <path id="DejaVuSans-Oblique-47" d="M 2675 525 
Q 2444 222 2128 65 
Q 1813 -91 1428 -91 
Q 903 -91 598 267 
Q 294 625 294 1247 
Q 294 1766 478 2236 
Q 663 2706 1013 3078 
Q 1244 3325 1534 3454 
Q 1825 3584 2144 3584 
Q 2481 3584 2739 3421 
Q 2997 3259 3138 2956 
L 3513 4863 
L 4091 4863 
L 3144 0 
L 2566 0 
L 2675 525 
z
M 891 1350 
Q 891 897 1095 644 
Q 1300 391 1663 391 
Q 1931 391 2161 520 
Q 2391 650 2566 903 
Q 2750 1166 2856 1509 
Q 2963 1853 2963 2188 
Q 2963 2622 2758 2865 
Q 2553 3109 2194 3109 
Q 1922 3109 1687 2981 
Q 1453 2853 1288 2613 
Q 1106 2353 998 2009 
Q 891 1666 891 1350 
z
" transform="scale(0.015625)"/>
     <path id="DejaVuSans-c" d="M 513 4856 
L 1013 4856 
Q 1481 4119 1714 3412 
Q 1947 2706 1947 2009 
Q 1947 1309 1714 600 
Q 1481 -109 1013 -844 
L 513 -844 
Q 928 -128 1133 580 
Q 1338 1288 1338 2009 
Q 1338 2731 1133 3434 
Q 928 4138 513 4856 
z
" transform="scale(0.015625)"/>
     <path id="DejaVuSans-Oblique-354" d="M 584 3500 
L 3938 3500 
L 3825 2925 
L 3384 2925 
L 2966 775 
Q 2922 550 2981 450 
Q 3038 353 3209 353 
Q 3256 353 3325 363 
Q 3397 369 3419 372 
L 3338 -44 
Q 3222 -84 3103 -103 
Q 2981 -122 2866 -122 
Q 2491 -122 2388 81 
Q 2284 288 2391 838 
L 2797 2925 
L 1506 2925 
L 938 0 
L 350 0 
L 919 2925 
L 472 2925 
L 584 3500 
z
" transform="scale(0.015625)"/>
     <path id="STIXNonUnicode-Italic-80" d="M 4294 800 
L 4301 800 
Q 5293 4070 5408 4378 
Q 5472 4538 5523 4614 
Q 5830 5088 6253 5088 
Q 6490 5088 6650 4931 
Q 6810 4774 6810 4550 
Q 6810 4378 6720 4272 
Q 6630 4166 6470 4166 
Q 6368 4166 6297 4224 
Q 6227 4282 6198 4349 
Q 6170 4416 6118 4473 
Q 6067 4531 6003 4531 
Q 5939 4531 5881 4508 
Q 5824 4486 5785 4457 
Q 5747 4429 5705 4371 
Q 5664 4314 5638 4275 
Q 5613 4237 5584 4163 
Q 5555 4090 5545 4058 
Q 5536 4026 5510 3952 
Q 5485 3878 5485 3866 
L 4262 -154 
L 4134 -154 
Q 3078 1280 2483 2893 
L 2470 2893 
Q 2406 2579 2358 2361 
Q 2310 2144 2214 1792 
Q 2118 1440 2028 1190 
Q 1939 941 1804 653 
Q 1670 365 1529 185 
Q 1389 6 1203 -115 
Q 1018 -237 813 -237 
Q 576 -237 416 -80 
Q 256 77 256 301 
Q 256 474 345 579 
Q 435 685 595 685 
Q 698 685 768 627 
Q 838 570 867 502 
Q 896 435 947 377 
Q 998 320 1062 320 
Q 1222 320 1369 480 
Q 1517 640 1638 928 
Q 1760 1216 1862 1542 
Q 1965 1869 2057 2288 
Q 2150 2707 2214 3033 
Q 2278 3360 2348 3741 
Q 2419 4122 2458 4294 
L 2630 4294 
Q 2682 4166 2874 3680 
Q 3066 3194 3142 3008 
Q 3219 2822 3392 2422 
Q 3565 2022 3683 1798 
Q 3802 1574 3968 1292 
Q 4134 1011 4294 800 
z
" transform="scale(0.015625)"/>
     <path id="DejaVuSans-BoldOblique-350" d="M -172 -1338 
L 769 3500 
L 1894 3500 
L 1497 1466 
Q 1484 1400 1478 1337 
Q 1472 1275 1472 1222 
Q 1472 994 1606 872 
Q 1741 750 1997 750 
Q 2316 750 2503 925 
Q 2691 1100 2766 1466 
L 3163 3500 
L 4288 3500 
L 3834 1159 
Q 3822 1094 3815 1039 
Q 3809 984 3809 941 
Q 3809 850 3851 806 
Q 3894 763 3981 763 
Q 4034 763 4095 780 
Q 4156 797 4219 831 
L 4063 50 
Q 3884 -22 3731 -56 
Q 3578 -91 3438 -91 
Q 3163 -91 3008 28 
Q 2853 147 2791 403 
Q 2597 156 2361 32 
Q 2125 -91 1850 -91 
Q 1619 -91 1473 -17 
Q 1328 56 1259 206 
L 959 -1338 
L -172 -1338 
z
" transform="scale(0.015625)"/>
     <path id="DejaVuSans-337" d="M 1353 531 
L 3634 531 
L 3634 0 
L 628 0 
L 628 531 
L 2125 2481 
L 628 4134 
L 628 4666 
L 3578 4666 
L 3578 4134 
L 1353 4134 
L 2850 2494 
L 1353 531 
z
" transform="scale(0.015625)"/>
     <path id="DejaVuSansDisplay-10" d="M 244 6509 
L 5803 6509 
L 5803 5656 
L 1566 5656 
L 4534 2488 
L 1469 -888 
L 5919 -888 
L 5919 -1738 
L 109 -1738 
L 109 -1078 
L 3316 2463 
L 244 5728 
L 244 6509 
z
" transform="scale(0.015625)"/>
     <path id="DejaVuSans-11" d="M 684 794 
L 1344 794 
L 1344 0 
L 684 0 
L 684 794 
z
" transform="scale(0.015625)"/>
    </defs>
    <use xlink:href="#DejaVuSans-Oblique-347" transform="translate(0 0.963594)"/>
    <use xlink:href="#DejaVuSans-Oblique-57" transform="translate(59.179688 -14.036357) scale(0.7)"/>
    <use xlink:href="#DejaVuSans-Oblique-4e" transform="translate(86.625977 -14.036357) scale(0.7)"/>
    <use xlink:href="#DejaVuSans-20" transform="translate(149.379883 0.963594)"/>
    <use xlink:href="#DejaVuSans-Oblique-33" transform="translate(252.651367 0.963594)"/>
    <use xlink:href="#DejaVuSans-b" transform="translate(312.954102 0.963594)"/>
    <use xlink:href="#DejaVuSans-Oblique-5d" transform="translate(351.967773 0.963594)"/>
    <use xlink:href="#DejaVuSans-Oblique-57" transform="translate(404.458008 -14.036357) scale(0.7)"/>
    <use xlink:href="#DejaVuSans-20" transform="translate(454.121094 0.963594)"/>
    <use xlink:href="#DejaVuSans-Oblique-4e" transform="translate(557.392578 0.963594)"/>
    <use xlink:href="#DejaVuSans-cad" transform="translate(634.785156 0.963594)"/>
    <use xlink:href="#DejaVuSans-BoldOblique-5b" transform="translate(704.267578 0.963594)"/>
    <use xlink:href="#DejaVuSans-Oblique-57" transform="translate(769.726562 -14.036357) scale(0.7)"/>
    <use xlink:href="#DejaVuSans-f" transform="translate(799.907227 0.963594)"/>
    <use xlink:href="#DejaVuSans-Oblique-34c" transform="translate(851.176758 0.963594)"/>
    <use xlink:href="#DejaVuSans-Oblique-52" transform="translate(919.915482 42.263594) scale(0.7)"/>
    <use xlink:href="#DejaVuSans-Oblique-4f" transform="translate(962.74263 42.263594) scale(0.7)"/>
    <use xlink:href="#DejaVuSans-Oblique-47" transform="translate(982.190872 42.263594) scale(0.7)"/>
    <use xlink:href="#DejaVuSans-c" transform="translate(1029.358841 0.963594)"/>
    <use xlink:href="#DejaVuSans-20" transform="translate(1087.854935 0.963594)"/>
    <use xlink:href="#DejaVuSans-Oblique-354" transform="translate(1229.376419 59.445938) scale(0.7)"/>
    <use xlink:href="#DejaVuSans-Oblique-52" transform="translate(1274.646276 90.767656) scale(0.49)"/>
    <use xlink:href="#DejaVuSans-Oblique-4f" transform="translate(1304.62528 90.767656) scale(0.49)"/>
    <use xlink:href="#DejaVuSans-Oblique-47" transform="translate(1318.239049 90.767656) scale(0.49)"/>
    <use xlink:href="#DejaVuSans-Oblique-4e" transform="translate(1271.519974 35.338594) scale(0.49)"/>
    <use xlink:href="#STIXNonUnicode-Italic-80" transform="translate(1351.256628 59.445938) scale(0.7)"/>
    <use xlink:href="#DejaVuSans-b" transform="translate(1418.246561 59.445938) scale(0.7)"/>
    <use xlink:href="#DejaVuSans-BoldOblique-5b" transform="translate(1445.556132 59.445938) scale(0.7)"/>
    <use xlink:href="#DejaVuSans-Oblique-57" transform="translate(1491.377421 48.945972) scale(0.49)"/>
    <use xlink:href="#DejaVuSans-cad" transform="translate(1526.141581 59.445938) scale(0.7)"/>
    <use xlink:href="#DejaVuSans-BoldOblique-350" transform="translate(1574.779276 59.445938) scale(0.7)"/>
    <use xlink:href="#DejaVuSans-Oblique-52" transform="translate(1626.957987 90.767656) scale(0.49)"/>
    <use xlink:href="#DejaVuSans-Oblique-4f" transform="translate(1656.936991 90.767656) scale(0.49)"/>
    <use xlink:href="#DejaVuSans-Oblique-47" transform="translate(1670.550761 90.767656) scale(0.49)"/>
    <use xlink:href="#DejaVuSans-Oblique-4e" transform="translate(1626.957987 35.338594) scale(0.49)"/>
    <use xlink:href="#DejaVuSans-f" transform="translate(1703.568339 59.445938) scale(0.7)"/>
    <use xlink:href="#DejaVuSans-337" transform="translate(1739.457011 59.445938) scale(0.7)"/>
    <use xlink:href="#DejaVuSans-Oblique-52" transform="translate(1784.355448 90.767656) scale(0.49)"/>
    <use xlink:href="#DejaVuSans-Oblique-4f" transform="translate(1814.334452 90.767656) scale(0.49)"/>
    <use xlink:href="#DejaVuSans-Oblique-47" transform="translate(1827.948222 90.767656) scale(0.49)"/>
    <use xlink:href="#DejaVuSans-Oblique-4e" transform="translate(1784.355448 35.338594) scale(0.49)"/>
    <use xlink:href="#DejaVuSans-c" transform="translate(1860.9658 59.445938) scale(0.7)"/>
    <use xlink:href="#DejaVuSansDisplay-10" transform="translate(1197.376419 -54.603594) scale(0.7)"/>
    <use xlink:href="#DejaVuSans-Oblique-4f" transform="translate(1223.376419 -123.970312) scale(0.49)"/>
    <use xlink:href="#DejaVuSans-Oblique-354" transform="translate(1260.923294 -54.603594) scale(0.7)"/>
    <use xlink:href="#DejaVuSans-Oblique-52" transform="translate(1306.193151 -23.281875) scale(0.49)"/>
    <use xlink:href="#DejaVuSans-Oblique-4f" transform="translate(1336.172155 -23.281875) scale(0.49)"/>
    <use xlink:href="#DejaVuSans-Oblique-47" transform="translate(1349.785924 -23.281875) scale(0.49)"/>
    <use xlink:href="#DejaVuSans-Oblique-4f" transform="translate(1303.066849 -78.710938) scale(0.49)"/>
    <use xlink:href="#STIXNonUnicode-Italic-80" transform="translate(1382.803503 -54.603594) scale(0.7)"/>
    <use xlink:href="#DejaVuSans-b" transform="translate(1449.793436 -54.603594) scale(0.7)"/>
    <use xlink:href="#DejaVuSans-BoldOblique-5b" transform="translate(1477.103007 -54.603594) scale(0.7)"/>
    <use xlink:href="#DejaVuSans-Oblique-57" transform="translate(1522.924296 -65.10356) scale(0.49)"/>
    <use xlink:href="#DejaVuSans-cad" transform="translate(1557.688456 -54.603594) scale(0.7)"/>
    <use xlink:href="#DejaVuSans-BoldOblique-350" transform="translate(1606.326151 -54.603594) scale(0.7)"/>
    <use xlink:href="#DejaVuSans-Oblique-52" transform="translate(1658.504862 -23.281875) scale(0.49)"/>
    <use xlink:href="#DejaVuSans-Oblique-4f" transform="translate(1688.483866 -23.281875) scale(0.49)"/>
    <use xlink:href="#DejaVuSans-Oblique-47" transform="translate(1702.097636 -23.281875) scale(0.49)"/>
    <use xlink:href="#DejaVuSans-Oblique-4f" transform="translate(1658.504862 -78.710938) scale(0.49)"/>
    <use xlink:href="#DejaVuSans-f" transform="translate(1735.115214 -54.603594) scale(0.7)"/>
    <use xlink:href="#DejaVuSans-337" transform="translate(1771.003886 -54.603594) scale(0.7)"/>
    <use xlink:href="#DejaVuSans-Oblique-52" transform="translate(1815.902323 -23.281875) scale(0.49)"/>
    <use xlink:href="#DejaVuSans-Oblique-4f" transform="translate(1845.881327 -23.281875) scale(0.49)"/>
    <use xlink:href="#DejaVuSans-Oblique-47" transform="translate(1859.495097 -23.281875) scale(0.49)"/>
    <use xlink:href="#DejaVuSans-Oblique-4f" transform="translate(1815.902323 -78.710938) scale(0.49)"/>
    <use xlink:href="#DejaVuSans-c" transform="translate(1892.512675 -54.603594) scale(0.7)"/>
    <use xlink:href="#DejaVuSans-11" transform="translate(1926.072245 0.963594)"/>
    <path d="M 1197.376419 22.838594 
L 1197.376419 29.088594 
L 1919.822245 29.088594 
L 1919.822245 22.838594 
L 1197.376419 22.838594 
z
"/>
   </g>
  </g>
 </g>
</svg>
