<?xml version="1.0" encoding="utf-8" standalone="no"?>
<!DOCTYPE svg PUBLIC "-//W3C//DTD SVG 1.1//EN"
  "http://www.w3.org/Graphics/SVG/1.1/DTD/svg11.dtd">
<svg xmlns:xlink="http://www.w3.org/1999/xlink" width="207.8352pt" height="62.1pt" viewBox="0 0 207.8352 62.1" xmlns="http://www.w3.org/2000/svg" version="1.1">
 <metadata>
  <rdf:RDF xmlns:dc="http://purl.org/dc/elements/1.1/" xmlns:cc="http://creativecommons.org/ns#" xmlns:rdf="http://www.w3.org/1999/02/22-rdf-syntax-ns#">
   <cc:Work>
    <dc:type rdf:resource="http://purl.org/dc/dcmitype/StillImage"/>
    <dc:date>2026-09-04T18:32:38.321178</dc:date>
    <dc:format>image/svg+xml</dc:format>
    <dc:creator>
     <cc:Agent>
      <dc:title>Matplotlib v3.11.1, https://matplotlib.org/</dc:title>
     </cc:Agent>
    </dc:creator>
   </cc:Work>
  </rdf:RDF>
 </metadata>
 <defs>
  <style type="text/css">*{stroke-linejoin: round; stroke-linecap: butt}</style>
 </defs>
 <g id="figure_1">
  <g id="patch_1">
   <path d="M 0 62.1 
L 207.8352 62.1 
L 207.8352 -0 
L 0 -0 
L 0 62.1 
z
" style="fill: none"/>
  </g>
  <g id="text_1">
   <!-- $d_{raw}(i,j)=\sqrt{\sum_{t=1}^{T}(r_{ti}-r_{tj})^2}.$ -->
   <g transform="translate(2.0376 40.05) scale(0.16 -0.16)">
    <defs>
     <path id="DejaVuSans-Oblique-47" d="M 2675 525 
Q 2444 222 2128 65 
Q 1813 -91 1428 -91 
Q 903 -91 598 267 
Q 294 625 294 1247 
Q 294 1766 478 2236 
Q 663 2706 1013 3078 
Q 1244 3325 1534 3454 
Q 1825 3584 2144 3584 
Q 2481 3584 2739 3421 
Q 2997 3259 3138 2956 
L 3513 4863 
L 4091 4863 
L 3144 0 
L 2566 0 
L 2675 525 
z
M 891 1350 
Q 891 897 1095 644 
Q 1300 391 1663 391 
Q 1931 391 2161 520 
Q 2391 650 2566 903 
Q 2750 1166 2856 1509 
Q 2963 1853 2963 2188 
Q 2963 2622 2758 2865 
Q 2553 3109 2194 3109 
Q 1922 3109 1687 2981 
Q 1453 2853 1288 2613 
Q 1106 2353 998 2009 
Q 891 1666 891 1350 
z
" transform="scale(0.015625)"/>
     <path id="DejaVuSans-Oblique-55" d="M 2853 2969 
Q 2766 3016 2653 3041 
Q 2541 3066 2413 3066 
Q 1953 3066 1609 2717 
Q 1266 2369 1153 1784 
L 800 0 
L 225 0 
L 909 3500 
L 1484 3500 
L 1375 2956 
Q 1603 3259 1920 3421 
Q 2238 3584 2597 3584 
Q 2691 3584 2781 3573 
Q 2872 3563 2963 3538 
L 2853 2969 
z
" transform="scale(0.015625)"/>
     <path id="DejaVuSans-Oblique-44" d="M 3438 1997 
L 3047 0 
L 2472 0 
L 2578 531 
Q 2325 219 2001 64 
Q 1678 -91 1281 -91 
Q 834 -91 548 182 
Q 263 456 263 884 
Q 263 1497 752 1853 
Q 1241 2209 2100 2209 
L 2900 2209 
L 2931 2363 
Q 2938 2388 2941 2417 
Q 2944 2447 2944 2509 
Q 2944 2788 2717 2942 
Q 2491 3097 2081 3097 
Q 1800 3097 1504 3025 
Q 1209 2953 897 2809 
L 997 3341 
Q 1322 3463 1633 3523 
Q 1944 3584 2234 3584 
Q 2853 3584 3176 3315 
Q 3500 3047 3500 2534 
Q 3500 2431 3484 2292 
Q 3469 2153 3438 1997 
z
M 2816 1759 
L 2241 1759 
Q 1534 1759 1195 1570 
Q 856 1381 856 984 
Q 856 709 1029 553 
Q 1203 397 1509 397 
Q 1978 397 2328 733 
Q 2678 1069 2791 1631 
L 2816 1759 
z
" transform="scale(0.015625)"/>
     <path id="DejaVuSans-Oblique-5a" d="M 544 3500 
L 1113 3500 
L 1259 684 
L 2566 3500 
L 3231 3500 
L 3425 684 
L 4666 3500 
L 5241 3500 
L 3641 0 
L 2969 0 
L 2797 2900 
L 1459 0 
L 781 0 
L 544 3500 
z
" transform="scale(0.015625)"/>
     <path id="DejaVuSans-b" d="M 1984 4856 
Q 1566 4138 1362 3434 
Q 1159 2731 1159 2009 
Q 1159 1288 1364 580 
Q 1569 -128 1984 -844 
L 1484 -844 
Q 1016 -109 783 600 
Q 550 1309 550 2009 
Q 550 2706 781 3412 
Q 1013 4119 1484 4856 
L 1984 4856 
z
" transform="scale(0.015625)"/>
     <path id="DejaVuSans-Oblique-4c" d="M 1172 4863 
L 1747 4863 
L 1606 4134 
L 1031 4134 
L 1172 4863 
z
M 909 3500 
L 1484 3500 
L 800 0 
L 225 0 
L 909 3500 
z
" transform="scale(0.015625)"/>
     <path id="DejaVuSans-f" d="M 750 794 
L 1409 794 
L 1409 256 
L 897 -744 
L 494 -744 
L 750 256 
L 750 794 
z
" transform="scale(0.015625)"/>
     <path id="DejaVuSans-Oblique-4d" d="M 928 3500 
L 1503 3500 
L 813 -63 
L 809 -78 
Q 694 -675 544 -897 
Q 403 -1106 132 -1218 
Q -138 -1331 -506 -1331 
L -722 -1331 
L -628 -844 
L -481 -844 
Q -144 -844 -1 -703 
Q 141 -563 238 -63 
L 928 3500 
z
M 1197 4863 
L 1772 4863 
L 1631 4134 
L 1056 4134 
L 1197 4863 
z
" transform="scale(0.015625)"/>
     <path id="DejaVuSans-c" d="M 513 4856 
L 1013 4856 
Q 1481 4119 1714 3412 
Q 1947 2706 1947 2009 
Q 1947 1309 1714 600 
Q 1481 -109 1013 -844 
L 513 -844 
Q 928 -128 1133 580 
Q 1338 1288 1338 2009 
Q 1338 2731 1133 3434 
Q 928 4138 513 4856 
z
" transform="scale(0.015625)"/>
     <path id="DejaVuSans-20" d="M 678 2906 
L 4684 2906 
L 4684 2381 
L 678 2381 
L 678 2906 
z
M 678 1631 
L 4684 1631 
L 4684 1100 
L 678 1100 
L 678 1631 
z
" transform="scale(0.015625)"/>
     <path id="STIXSizeThreeSym-Regular-22" d="M 7104 16416 
L 3635 -3264 
L 3270 -3264 
L 1830 4826 
Q 1754 5242 1658 5434 
Q 1562 5626 1376 5626 
Q 1082 5626 832 5414 
L 717 5632 
L 2125 6522 
L 2374 6522 
L 3648 -634 
L 3674 -634 
L 6675 16416 
L 7104 16416 
z
" transform="scale(0.015625)"/>
     <path id="DejaVuSans-Oblique-37" d="M 378 4666 
L 4325 4666 
L 4225 4134 
L 2559 4134 
L 1759 0 
L 1125 0 
L 1925 4134 
L 275 4134 
L 378 4666 
z
" transform="scale(0.015625)"/>
     <path id="DejaVuSansDisplay-10" d="M 244 6509 
L 5803 6509 
L 5803 5656 
L 1566 5656 
L 4534 2488 
L 1469 -888 
L 5919 -888 
L 5919 -1738 
L 109 -1738 
L 109 -1078 
L 3316 2463 
L 244 5728 
L 244 6509 
z
" transform="scale(0.015625)"/>
     <path id="DejaVuSans-Oblique-57" d="M 2706 3500 
L 2619 3053 
L 1472 3053 
L 1100 1153 
Q 1081 1047 1072 975 
Q 1063 903 1063 863 
Q 1063 663 1183 572 
Q 1303 481 1569 481 
L 2150 481 
L 2053 0 
L 1503 0 
Q 991 0 739 200 
Q 488 400 488 806 
Q 488 878 497 964 
Q 506 1050 525 1153 
L 897 3053 
L 409 3053 
L 500 3500 
L 978 3500 
L 1172 4494 
L 1747 4494 
L 1556 3500 
L 2706 3500 
z
" transform="scale(0.015625)"/>
     <path id="DejaVuSans-14" d="M 794 531 
L 1825 531 
L 1825 4091 
L 703 3866 
L 703 4441 
L 1819 4666 
L 2450 4666 
L 2450 531 
L 3481 531 
L 3481 0 
L 794 0 
L 794 531 
z
" transform="scale(0.015625)"/>
     <path id="DejaVuSans-c9c" d="M 678 2272 
L 4684 2272 
L 4684 1741 
L 678 1741 
L 678 2272 
z
" transform="scale(0.015625)"/>
     <path id="DejaVuSans-15" d="M 1228 531 
L 3431 531 
L 3431 0 
L 469 0 
L 469 531 
Q 828 903 1448 1529 
Q 2069 2156 2228 2338 
Q 2531 2678 2651 2914 
Q 2772 3150 2772 3378 
Q 2772 3750 2511 3984 
Q 2250 4219 1831 4219 
Q 1534 4219 1204 4116 
Q 875 4013 500 3803 
L 500 4441 
Q 881 4594 1212 4672 
Q 1544 4750 1819 4750 
Q 2544 4750 2975 4387 
Q 3406 4025 3406 3419 
Q 3406 3131 3298 2873 
Q 3191 2616 2906 2266 
Q 2828 2175 2409 1742 
Q 1991 1309 1228 531 
z
" transform="scale(0.015625)"/>
     <path id="DejaVuSans-11" d="M 684 794 
L 1344 794 
L 1344 0 
L 684 0 
L 684 794 
z
" transform="scale(0.015625)"/>
    </defs>
    <use xlink:href="#DejaVuSans-Oblique-47" transform="translate(0 0.26875)"/>
    <use xlink:href="#DejaVuSans-Oblique-55" transform="translate(63.476562 -14.731201) scale(0.7)"/>
    <use xlink:href="#DejaVuSans-Oblique-44" transform="translate(92.255859 -14.731201) scale(0.7)"/>
    <use xlink:href="#DejaVuSans-Oblique-5a" transform="translate(135.151367 -14.731201) scale(0.7)"/>
    <use xlink:href="#DejaVuSans-b" transform="translate(195.136719 0.26875)"/>
    <use xlink:href="#DejaVuSans-Oblique-4c" transform="translate(234.150391 0.26875)"/>
    <use xlink:href="#DejaVuSans-f" transform="translate(261.933594 0.26875)"/>
    <use xlink:href="#DejaVuSans-Oblique-4d" transform="translate(313.203125 0.26875)"/>
    <use xlink:href="#DejaVuSans-c" transform="translate(340.986328 0.26875)"/>
    <use xlink:href="#DejaVuSans-20" transform="translate(399.482422 0.26875)"/>
    <use xlink:href="#STIXSizeThreeSym-Regular-22" transform="translate(502.753906 -46.96875) scale(0.974563)"/>
    <use xlink:href="#DejaVuSans-Oblique-37" transform="translate(678.113464 120.715625) scale(0.7)"/>
    <use xlink:href="#DejaVuSansDisplay-10" transform="translate(654.113464 0.2625)"/>
    <use xlink:href="#DejaVuSans-Oblique-57" transform="translate(620.113464 -96.678125) scale(0.7)"/>
    <use xlink:href="#DejaVuSans-20" transform="translate(661.197449 -96.678125) scale(0.7)"/>
    <use xlink:href="#DejaVuSans-14" transform="translate(733.487488 -96.678125) scale(0.7)"/>
    <use xlink:href="#DejaVuSans-b" transform="translate(778.023621 0.2625)"/>
    <use xlink:href="#DejaVuSans-Oblique-55" transform="translate(817.037292 0.2625)"/>
    <use xlink:href="#DejaVuSans-Oblique-57" transform="translate(858.150574 -14.737451) scale(0.7)"/>
    <use xlink:href="#DejaVuSans-Oblique-4c" transform="translate(885.596863 -14.737451) scale(0.7)"/>
    <use xlink:href="#DejaVuSans-c9c" transform="translate(927.261902 0.2625)"/>
    <use xlink:href="#DejaVuSans-Oblique-55" transform="translate(1030.533386 0.2625)"/>
    <use xlink:href="#DejaVuSans-Oblique-57" transform="translate(1071.646667 -14.737451) scale(0.7)"/>
    <use xlink:href="#DejaVuSans-Oblique-4d" transform="translate(1099.092957 -14.737451) scale(0.7)"/>
    <use xlink:href="#DejaVuSans-c" transform="translate(1121.275574 0.2625)"/>
    <use xlink:href="#DejaVuSans-15" transform="translate(1161.246277 41.5625) scale(0.7)"/>
    <use xlink:href="#DejaVuSans-11" transform="translate(1221.016785 0.26875)"/>
    <path d="M 607.613464 202.75 
L 607.613464 209 
L 1221.016785 209 
L 1221.016785 202.75 
L 607.613464 202.75 
z
"/>
   </g>
  </g>
 </g>
</svg>
